<svg id="组_2777" data-name="组 2777" xmlns="http://www.w3.org/2000/svg" width="47.431" height="47.29" viewBox="0 0 47.431 47.29">
  <path id="路径_823" data-name="路径 823" d="M358.681,405.048c0,2.808.011,5.507-.021,8.205a.907.907,0,0,1-.465.619c-5.262,2.67-7.767,7.315-9.173,12.737-.182.7-.181,1.449-.332,2.161-.174.821.17,1.014.927,1.005,2.566-.03,5.134-.011,7.7-.011h1.113c.121.159.2.216.2.27-.11,4.009.224,8.1-.45,12.009-.94,5.454-4.731,8.821-10.108,9.839-3.19.6-6.548.329-9.964.455v-1.512c0-6.73-.015-13.46,0-20.191.023-8.471,3.617-15.218,10.132-20.479a24.73,24.73,0,0,1,9.266-4.864C357.858,405.2,358.212,405.145,358.681,405.048Z" transform="translate(-311.252 -405.048)" fill="#707071"/>
  <path id="路径_824" data-name="路径 824" d="M287.67,429.8c3.073,0,5.858.037,8.64-.021.943-.019,1.29.216,1.267,1.213-.073,3.108.043,6.223-.088,9.328a12.723,12.723,0,0,1-11.615,11.732c-2.847.146-5.707.025-8.741.025v-1.132c0-6.732-.044-13.465.011-20.2A25.561,25.561,0,0,1,287,410.443a25.028,25.028,0,0,1,9.515-5.091c.34-.09.692-.138,1.182-.233,0,2.833.008,5.532-.018,8.23a.8.8,0,0,1-.4.552c-5.189,2.622-7.707,7.19-9.134,12.525A28.418,28.418,0,0,0,287.67,429.8Z" transform="translate(-277.116 -405.088)" fill="#707071"/>
</svg>
