<svg xmlns="http://www.w3.org/2000/svg" xmlns:xlink="http://www.w3.org/1999/xlink" width="62.373" height="22.896" viewBox="0 0 62.373 22.896">
  <defs>
    <radialGradient id="radial-gradient" cx="0.5" cy="0.5" r="0.5" gradientUnits="objectBoundingBox">
      <stop offset="0" stop-color="#003383"/>
      <stop offset="1" stop-color="#fff"/>
    </radialGradient>
  </defs>
  <g id="组_2602" transform="translate(-130.512 260.838) rotate(-90)">
    <g id="组_2325" transform="translate(243.204 175.395) rotate(-90)">
      <g id="组_2310" transform="translate(33.703 0) rotate(90)">
        <path id="路径_804" d="M6.31,27.765c.6-2.227,1.208-4.452,1.8-6.681.637-2.414,1.282-4.827,1.861-7.251a2.82,2.82,0,0,0-.113-1.51c-.333-.973-.8-1.912-1.19-2.87-.294-.717-.091-1.235.57-1.425a1.1,1.1,0,0,1,1.447.717c.561,1.293,1.115,2.589,1.625,3.9a1.549,1.549,0,0,1,0,.9Q9.884,22.97,7.438,32.388c-.033.127-.087.251-.117.378a1.066,1.066,0,0,1-1.112.936,1.094,1.094,0,0,1-1.2-.947q-.669-2.513-1.32-5.029C2.478,23.048,1.261,18.371.076,13.688A2.155,2.155,0,0,1,.122,12.4C1.7,8.567,5.03.509,5.173.435,5.549.241,5.885-.1,6.367.027s.619.556.735.906c.085.258-3.185,7.9-4.621,11.416a2.524,2.524,0,0,0-.127,1.508C3.5,18.308,4.69,22.749,5.873,27.193a6,6,0,0,0,.213.568Z" transform="translate(0 0)" fill="url(#radial-gradient)"/>
      </g>
    </g>
    <g id="组_2326" transform="translate(237.942 192.885) rotate(-90)">
      <g id="组_2310-2" transform="translate(62.373) rotate(90)">
        <path id="路径_804-2" d="M11.677,51.384c1.11-4.121,2.235-8.239,3.324-12.365,1.179-4.467,2.372-8.932,3.444-13.42a5.219,5.219,0,0,0-.209-2.8c-.617-1.8-1.476-3.538-2.2-5.311-.544-1.327-.168-2.286,1.055-2.638a2.044,2.044,0,0,1,2.678,1.326c1.038,2.393,2.063,4.792,3.007,7.215a2.867,2.867,0,0,1-.007,1.673q-4.475,17.44-9,34.871c-.061.236-.16.464-.217.7a1.973,1.973,0,0,1-2.058,1.733,2.025,2.025,0,0,1-2.22-1.752q-1.238-4.65-2.442-9.307C4.587,42.654,2.334,34,.141,25.331a3.988,3.988,0,0,1,.084-2.385C3.141,15.854,9.309.942,9.573.806c.7-.359,1.317-.986,2.21-.756s1.146,1.028,1.359,1.677C13.3,2.2,7.247,16.347,4.591,22.853a4.672,4.672,0,0,0-.235,2.791C6.47,33.882,8.679,42.1,10.868,50.325a11.1,11.1,0,0,0,.394,1.051Z" transform="translate(0 0)" fill="url(#radial-gradient)"/>
      </g>
    </g>
  </g>
</svg>
